<?xml version="1.0" standalone="no"?>
<!DOCTYPE svg PUBLIC "-//W3C//DTD SVG 20010904//EN"
 "http://www.w3.org/TR/2001/REC-SVG-20010904/DTD/svg10.dtd">
<svg version="1.0" xmlns="http://www.w3.org/2000/svg"
 width="500.000000pt" height="500.000000pt" viewBox="0 0 500.000000 500.000000"
 preserveAspectRatio="xMidYMid meet">
<metadata>
Created by potrace 1.11, written by Peter Selinger 2001-2013
</metadata>
<g transform="translate(0.000000,500.000000) scale(0.100000,-0.100000)"
fill="#000000" stroke="none">
<path d="M845 4152 c-3 -3 -87 -10 -137 -13 -10 0 -18 -3 -18 -7 0 -4 -12 -9
-27 -10 -15 -1 -29 -5 -32 -10 -3 -4 -19 -14 -35 -22 -44 -22 -114 -97 -141
-150 -54 -106 -58 -139 -61 -520 -8 -707 -9 -742 -27 -782 -9 -21 -33 -48 -52
-61 -29 -20 -45 -23 -104 -22 -83 3 -77 21 -76 -215 l0 -164 71 -1 c87 -2 130
-24 159 -80 19 -38 20 -66 26 -605 6 -602 6 -599 58 -710 36 -77 43 -87 112
-142 26 -21 49 -34 53 -31 3 4 6 2 6 -4 0 -19 132 -45 248 -49 l112 -3 0 189
0 189 -42 0 c-50 -1 -131 22 -151 43 -42 41 -42 40 -47 628 l-5 565 -29 58
c-31 63 -83 110 -143 131 l-38 13 38 12 c20 7 37 17 37 23 0 6 3 9 6 5 12 -12
83 66 106 116 23 52 23 53 28 587 l5 535 27 46 c24 41 45 60 64 58 4 0 10 5
14 11 4 6 35 14 69 17 l61 6 0 183 c0 101 -3 184 -7 185 -24 3 -125 4 -128 1z"/>
<path d="M4031 4152 c-7 -2 -11 -66 -11 -189 l0 -185 43 5 c48 6 99 -13 137
-52 56 -58 55 -44 60 -621 l5 -535 24 -53 c24 -53 105 -137 122 -126 5 3 9 1
9 -4 0 -6 12 -13 28 -18 23 -6 24 -8 7 -12 -10 -2 -29 -11 -42 -19 -13 -9 -23
-12 -23 -9 0 19 -83 -79 -102 -121 -22 -47 -23 -55 -28 -613 -5 -588 -5 -587
-47 -628 -19 -19 -99 -43 -150 -44 l-43 -1 0 -188 0 -188 73 3 c39 1 80 -2 91
-7 13 -6 16 -6 12 2 -5 7 5 11 26 12 46 1 79 8 93 19 7 5 14 7 18 4 3 -3 16 0
29 7 12 7 26 12 31 11 4 -1 7 3 7 10 0 6 3 9 6 5 11 -11 111 97 137 149 60
118 60 120 66 729 6 607 6 603 62 650 28 23 41 26 124 28 l60 2 0 190 0 190
-65 0 c-71 1 -120 21 -144 58 -32 48 -36 117 -39 632 -4 564 -5 584 -63 695
-27 52 -84 120 -102 120 -7 0 -12 4 -12 8 0 5 -21 19 -47 32 -46 23 -58 27
-93 34 -8 2 -26 6 -40 10 -27 7 -202 14 -219 8z"/>
<path d="M1541 3921 c-7 -5 -22 -6 -32 -4 -19 5 -19 -25 -17 -1388 l3 -1394
203 0 202 0 1 35 c0 19 0 269 0 555 0 286 2 527 5 535 3 13 77 15 599 15 l595
0 0 -570 0 -570 203 0 202 0 3 1391 c2 1350 2 1392 -17 1397 -10 2 -26 0 -35
-5 -10 -5 -22 -5 -33 0 -9 6 -29 6 -45 2 -16 -5 -30 -5 -33 1 -4 5 -13 5 -24
-1 -12 -6 -22 -5 -29 2 -9 9 -12 9 -12 -1 0 -10 -3 -11 -13 -3 -8 7 -18 7 -27
2 -9 -5 -19 -5 -27 1 -8 7 -18 7 -32 -1 -13 -7 -28 -7 -38 -2 -44 22 -43 30
-43 -598 0 -561 -1 -598 -17 -601 -15 -3 -1107 -3 -1164 0 -15 1 -17 52 -15
596 1 585 1 594 -19 602 -11 5 -36 6 -55 3 -19 -3 -43 -2 -52 2 -12 6 -18 5
-18 -2 0 -7 -6 -8 -16 -2 -9 5 -32 6 -50 2 -19 -5 -37 -4 -40 1 -3 5 -10 7
-15 3 -17 -10 -59 -12 -65 -3 -7 11 -15 11 -33 0z"/>
</g>
</svg>
